<svg id="Capa_1" data-name="Capa 1" xmlns="http://www.w3.org/2000/svg" viewBox="0 0 97.8 97.8"><defs><style>.cls-1{fill:#1da1f2;}</style></defs><title>tw-hov</title><path class="cls-1" d="M48.9,0A48.9,48.9,0,1,0,97.8,48.9,48.91,48.91,0,0,0,48.9,0ZM78.4,35.8v1.7C78.4,58.4,62.5,80,35.9,80A42.47,42.47,0,0,1,13,73.3c-.1-.1-.2-.3-.1-.4s.2-.3.4-.2c1.1.1,2.3.2,3.5.2a29.46,29.46,0,0,0,17.4-5.7A15.15,15.15,0,0,1,21,56.7a.6.6,0,0,1,.1-.4.37.37,0,0,1,.3-.1,16.83,16.83,0,0,0,5,.1A15.15,15.15,0,0,1,15.7,41.8v-.2c0-.1.1-.2.2-.3s.2-.1.4,0A13.76,13.76,0,0,0,21.6,43a15.17,15.17,0,0,1-5.7-11.9A14.51,14.51,0,0,1,18,23.5c.1-.1.2-.2.3-.2a.37.37,0,0,1,.3.1A42,42,0,0,0,48.4,38.7,15.2,15.2,0,0,1,74.2,25.1a29.62,29.62,0,0,0,9.1-3.5.3.3,0,0,1,.4,0c.1.1.2.3.1.4a15.46,15.46,0,0,1-5.3,7.5,25.63,25.63,0,0,0,6.8-2.1c.1-.1.3,0,.4.1a.3.3,0,0,1,0,.4A25.19,25.19,0,0,1,78.4,35.8Z"/></svg>